<?xml version="1.0" encoding="UTF-8"?>
<svg version="1.1" xmlns="http://www.w3.org/2000/svg" xmlns:xlink="http://www.w3.org/1999/xlink">
    <symbol viewBox="0 0 16 16" id="arrow">
        <path d="M8,16 C3.581722,16 0,12.418278 0,8 C0,3.581722 3.581722,0 8,0 C12.418278,0 16,3.581722 16,8 C16,12.418278 12.418278,16 8,16 Z M8.73850569,8 L5.88742833,10.2095849 C5.45089416,10.5478989 5.37127096,11.1760375 5.70958495,11.6125717 C6.04789894,12.0491058 6.67603749,12.128729 7.11257167,11.7904151 L10.9835394,8.79041505 C11.5001105,8.39007244 11.5001105,7.60992756 10.9835394,7.20958495 L7.11257167,4.20958495 C6.67603749,3.87127096 6.04789894,3.95089416 5.70958495,4.38742833 C5.37127096,4.82396251 5.45089416,5.45210106 5.88742833,5.79041505 L8.73850569,8 Z" id="Combined-Shape"></path>
    </symbol>
    <symbol viewBow="0 0 16 16" id="arrow-simple">
        <path d="M4.5481342,4.99999981 L0.984296054,7.76197438 C0.438629637,8.18486585 0.33910088,8.97003716 0.761992353,9.51570358 C1.18488383,10.06137 1.97005513,10.1608987 2.51572155,9.73800728 L7.35441963,5.98801626 C8.00013197,5.4875892 8.00013197,4.51241043 7.35441963,4.01198337 L2.51572155,0.261992353 C1.97005513,-0.16089912 1.18488383,-0.0613703627 0.761992353,0.484296054 C0.33910088,1.02996247 0.438629637,1.81513378 0.984296054,2.23802525 L4.5481342,4.99999981 Z" id="Combined-Shape"></path>
    </symbol>
</svg>