<?xml version="1.0" encoding="UTF-8"?>
<svg width="32px" height="32px" viewBox="0 0 32 32" version="1.1" xmlns="http://www.w3.org/2000/svg" xmlns:xlink="http://www.w3.org/1999/xlink">
    <!-- Generator: Sketch 57.1 (83088) - https://sketch.com -->
    <title>settings-dark</title>
    <desc>Created with Sketch.</desc>
    <g id="settings-dark" stroke="none" stroke-width="1" fill="none" fill-rule="evenodd">
        <path d="M8.20443264,-3.31468898e-16 L23.7955674,3.31468898e-16 C26.6484273,-1.92592976e-16 27.6829433,0.297041956 28.7259063,0.854824652 C29.7688692,1.41260735 30.5873927,2.23113079 31.1451753,3.27409375 C31.702958,4.31705671 32,5.35157267 32,8.20443264 L32,23.7955674 C32,26.6484273 31.702958,27.6829433 31.1451753,28.7259063 C30.5873927,29.7688692 29.7688692,30.5873927 28.7259063,31.1451753 C27.6829433,31.702958 26.6484273,32 23.7955674,32 L8.20443264,32 C5.35157267,32 4.31705671,31.702958 3.27409375,31.1451753 C2.23113079,30.5873927 1.41260735,29.7688692 0.854824652,28.7259063 C0.297041956,27.6829433 1.28395317e-16,26.6484273 -2.20979266e-16,23.7955674 L2.20979266e-16,8.20443264 C-1.28395317e-16,5.35157267 0.297041956,4.31705671 0.854824652,3.27409375 C1.41260735,2.23113079 2.23113079,1.41260735 3.27409375,0.854824652 C4.31705671,0.297041956 5.35157267,1.92592976e-16 8.20443264,-3.31468898e-16 Z" id="Rectangle" fill="#2D2E2F"></path>
        <path d="M16.1462057,21.6 C15.5850921,21.6 15.2452627,21.2775281 15.2452627,20.7662921 C15.2452627,20.6011236 15.2689717,20.4280899 15.3480018,20.2235955 L18.6277503,11.3910112 C18.8648406,10.7224719 19.3153121,10.4 20.0186798,10.4 C20.7457566,10.4 21.1962281,10.7224719 21.4412214,11.3910112 L24.6972609,20.1842697 C24.776291,20.3966292 24.8,20.5617978 24.8,20.7505618 C24.8,21.2617978 24.4364616,21.6 23.875348,21.6 C23.3616524,21.6 23.1008532,21.3719101 22.919084,20.8292135 L22.1208801,18.5955056 L17.8927705,18.5955056 L17.0945667,20.8292135 C16.9207005,21.3719101 16.6599012,21.6 16.1462057,21.6 Z M18.327436,17.1404494 L21.6783116,17.1404494 L20.0265828,12.358427 L19.9791648,12.358427 L18.327436,17.1404494 Z M8.05352492,21.6 C7.53192636,21.6 7.2,21.2932584 7.2,20.805618 C7.2,20.6483146 7.23951504,20.4516854 7.32644814,20.2314607 L9.46816345,14.4977528 C9.68944769,13.8764045 10.0925011,13.5303371 10.7247418,13.5303371 C11.3885945,13.5303371 11.7837449,13.8685393 12.0208352,14.4977528 L14.1625505,20.2314607 C14.2494836,20.4595506 14.2810956,20.6247191 14.2810956,20.805618 C14.2810956,21.2775281 13.9333633,21.6 13.4433767,21.6 C13.0008083,21.6 12.740009,21.3876404 12.5740458,20.852809 L12.1077683,19.4685393 L9.36542434,19.4685393 L8.89914683,20.8370787 C8.73318366,21.3797753 8.47238437,21.6 8.05352492,21.6 Z M9.74476875,18.1786517 L11.7205209,18.1786517 L10.7642568,15.252809 L10.6773238,15.252809 L9.74476875,18.1786517 Z" fill="#FE9E03" fill-rule="nonzero"></path>
    </g>
</svg>